<svg width="1200" height="780" viewBox="0 0 1200 780" fill="none" xmlns="http://www.w3.org/2000/svg">
  <defs>
    <linearGradient id="panel" x1="0" y1="0" x2="0" y2="780" gradientUnits="userSpaceOnUse">
      <stop stop-color="#FFFFFF"/>
      <stop offset="1" stop-color="#F6F9FF"/>
    </linearGradient>
    <linearGradient id="nav" x1="0" y1="0" x2="0" y2="780" gradientUnits="userSpaceOnUse">
      <stop stop-color="#182A55"/>
      <stop offset="1" stop-color="#0E1731"/>
    </linearGradient>
  </defs>

  <rect width="1200" height="780" rx="26" fill="url(#panel)"/>
  <rect x="28" y="28" width="1144" height="724" rx="24" fill="#FFFFFF" stroke="#E5ECF7"/>

  <rect x="54" y="54" width="72" height="672" rx="18" fill="url(#nav)"/>
  <circle cx="90" cy="96" r="12" fill="#5D8CFF"/>
  <circle cx="90" cy="154" r="11" fill="#2F6CFF"/>
  <circle cx="90" cy="212" r="11" fill="#7DA8FF"/>
  <circle cx="90" cy="270" r="11" fill="#7DA8FF" opacity="0.72"/>
  <circle cx="90" cy="328" r="11" fill="#7DA8FF" opacity="0.72"/>
  <circle cx="90" cy="386" r="11" fill="#7DA8FF" opacity="0.72"/>

  <text x="156" y="112" fill="#16223B" font-size="24" font-family="Inter, Arial, sans-serif" font-weight="700">Dashboard Overview</text>
  <rect x="952" y="92" width="152" height="40" rx="12" fill="#F7FAFF" stroke="#E2EAF6"/>
  <text x="980" y="118" fill="#5B6983" font-size="14" font-family="Inter, Arial, sans-serif">This Week</text>
  <path d="M1080 111l8 8 8-8" stroke="#8BA0C0" stroke-width="2" stroke-linecap="round" stroke-linejoin="round"/>

  <rect x="156" y="156" width="188" height="120" rx="18" fill="#F7FAFF" stroke="#E4EBF7"/>
  <rect x="356" y="156" width="188" height="120" rx="18" fill="#F7FAFF" stroke="#E4EBF7"/>
  <rect x="556" y="156" width="188" height="120" rx="18" fill="#F7FAFF" stroke="#E4EBF7"/>
  <rect x="756" y="156" width="276" height="120" rx="18" fill="#F7FAFF" stroke="#E4EBF7"/>

  <text x="176" y="188" fill="#62708A" font-size="14" font-family="Inter, Arial, sans-serif">Total Appointments</text>
  <text x="176" y="230" fill="#16223B" font-size="28" font-family="Inter, Arial, sans-serif" font-weight="800">1,248</text>
  <path d="M286 214C297 190 310 182 324 180" stroke="#2ECC71" stroke-width="3" stroke-linecap="round"/>
  <text x="178" y="252" fill="#2ECC71" font-size="13" font-family="Inter, Arial, sans-serif">+10%</text>

  <text x="376" y="188" fill="#62708A" font-size="14" font-family="Inter, Arial, sans-serif">Patients</text>
  <text x="376" y="230" fill="#16223B" font-size="28" font-family="Inter, Arial, sans-serif" font-weight="800">892</text>
  <text x="376" y="252" fill="#2ECC71" font-size="13" font-family="Inter, Arial, sans-serif">+12%</text>

  <text x="576" y="188" fill="#62708A" font-size="14" font-family="Inter, Arial, sans-serif">Labs</text>
  <text x="576" y="230" fill="#16223B" font-size="28" font-family="Inter, Arial, sans-serif" font-weight="800">156</text>
  <text x="576" y="252" fill="#2ECC71" font-size="13" font-family="Inter, Arial, sans-serif">+8%</text>

  <text x="776" y="188" fill="#62708A" font-size="14" font-family="Inter, Arial, sans-serif">Reports</text>
  <text x="776" y="230" fill="#16223B" font-size="28" font-family="Inter, Arial, sans-serif" font-weight="800">2,345</text>
  <text x="780" y="252" fill="#1F5DE8" font-size="13" font-family="Inter, Arial, sans-serif">★★★★★</text>

  <rect x="156" y="300" width="542" height="352" rx="22" fill="#FFFFFF" stroke="#E4EBF7"/>
  <text x="182" y="336" fill="#16223B" font-size="18" font-family="Inter, Arial, sans-serif" font-weight="700">Appointments Trend</text>
  <path d="M184 566C223 532 248 512 280 516C310 520 332 560 360 562C387 564 410 514 444 512C477 510 502 550 532 550C568 550 591 476 628 478C652 479 674 504 694 520" stroke="#1F5DE8" stroke-width="4" fill="none" stroke-linecap="round"/>
  <path d="M184 614H676" stroke="#E4EBF7"/>
  <path d="M184 560H676" stroke="#EEF3FB"/>
  <path d="M184 506H676" stroke="#EEF3FB"/>
  <path d="M184 454H676" stroke="#EEF3FB"/>
  <path d="M184 404H676" stroke="#EEF3FB"/>
  <path d="M442 518V566" stroke="#B8C9E7"/>
  <rect x="404" y="430" width="78" height="54" rx="12" fill="#FFFFFF" stroke="#DDE7F4"/>
  <text x="428" y="454" fill="#16223B" font-size="16" font-family="Inter, Arial, sans-serif" font-weight="700">Thu</text>
  <text x="428" y="476" fill="#16223B" font-size="16" font-family="Inter, Arial, sans-serif" font-weight="700">256</text>

  <rect x="738" y="300" width="294" height="352" rx="22" fill="#FFFFFF" stroke="#E4EBF7"/>
  <text x="764" y="336" fill="#16223B" font-size="18" font-family="Inter, Arial, sans-serif" font-weight="700">Recent Activity</text>

  <circle cx="778" cy="386" r="12" fill="#E5F1FF"/>
  <circle cx="778" cy="436" r="12" fill="#E6F8EF"/>
  <circle cx="778" cy="486" r="12" fill="#E5F1FF"/>
  <circle cx="778" cy="536" r="12" fill="#E6F8EF"/>

  <text x="804" y="380" fill="#16223B" font-size="15" font-family="Inter, Arial, sans-serif" font-weight="600">New Appointment</text>
  <text x="804" y="400" fill="#7A879F" font-size="13" font-family="Inter, Arial, sans-serif">2 min ago</text>
  <text x="804" y="430" fill="#16223B" font-size="15" font-family="Inter, Arial, sans-serif" font-weight="600">Report Generated</text>
  <text x="804" y="450" fill="#7A879F" font-size="13" font-family="Inter, Arial, sans-serif">10 min ago</text>
  <text x="804" y="480" fill="#16223B" font-size="15" font-family="Inter, Arial, sans-serif" font-weight="600">Patient Registered</text>
  <text x="804" y="500" fill="#7A879F" font-size="13" font-family="Inter, Arial, sans-serif">15 min ago</text>
  <text x="804" y="530" fill="#16223B" font-size="15" font-family="Inter, Arial, sans-serif" font-weight="600">Reminder Sent</text>
  <text x="804" y="550" fill="#7A879F" font-size="13" font-family="Inter, Arial, sans-serif">25 min ago</text>
</svg>
