<svg width="512" height="512" viewBox="0 0 512 512" fill="none" xmlns="http://www.w3.org/2000/svg">
  <defs>
    <linearGradient id="bg" x1="92" y1="84" x2="412" y2="420" gradientUnits="userSpaceOnUse">
      <stop stop-color="#F8FBFF"/>
      <stop offset="1" stop-color="#E8F0FF"/>
    </linearGradient>
  </defs>
  <rect width="512" height="512" rx="256" fill="url(#bg)"/>
  <circle cx="256" cy="226" r="82" fill="#EBC09A"/>
  <path d="M206 220C206 181 228 150 256 150C286 150 308 181 308 220C308 260 288 290 256 290C226 290 206 260 206 220Z" fill="#F2C39A"/>
  <path d="M178 214C176 163 206 124 256 124C306 124 336 163 334 214C326 203 316 196 300 190C289 143 227 143 216 190C200 196 190 203 178 214Z" fill="#2B2E39"/>
  <path d="M154 346C164 300 184 278 215 266C228 261 246 259 256 259C267 259 285 261 298 266C329 278 348 300 358 346V470H154V346Z" fill="#DDE7F7"/>
  <path d="M190 276L156 314L180 330L216 294L190 276Z" fill="#F7FBFF"/>
  <path d="M292 294L328 330L352 314L318 276L292 294Z" fill="#F7FBFF"/>
  <path d="M224 238C224 250 232 260 256 260C280 260 288 250 288 238" stroke="#C68763" stroke-width="3" stroke-linecap="round"/>
  <circle cx="231" cy="224" r="6" fill="#2C2D39"/>
  <circle cx="281" cy="224" r="6" fill="#2C2D39"/>
</svg>
