<svg width="1200" height="760" viewBox="0 0 1200 760" fill="none" xmlns="http://www.w3.org/2000/svg">
  <defs>
    <linearGradient id="bg" x1="135" y1="82" x2="1078" y2="718" gradientUnits="userSpaceOnUse">
      <stop stop-color="#F8FBFF"/>
      <stop offset="1" stop-color="#EAF0FF"/>
    </linearGradient>
    <linearGradient id="screen" x1="597" y1="128" x2="792" y2="352" gradientUnits="userSpaceOnUse">
      <stop stop-color="#7AD8FF" stop-opacity="0.52"/>
      <stop offset="1" stop-color="#54A8FF" stop-opacity="0.14"/>
    </linearGradient>
    <linearGradient id="coat" x1="804" y1="178" x2="1018" y2="600" gradientUnits="userSpaceOnUse">
      <stop stop-color="#FFFFFF"/>
      <stop offset="1" stop-color="#DCE7F7"/>
    </linearGradient>
    <linearGradient id="desk" x1="68" y1="592" x2="1104" y2="719" gradientUnits="userSpaceOnUse">
      <stop stop-color="#E8EEF9"/>
      <stop offset="1" stop-color="#D8E2F2"/>
    </linearGradient>
    <filter id="shadow" x="0" y="0" width="1200" height="760" filterUnits="userSpaceOnUse" color-interpolation-filters="sRGB">
      <feFlood flood-opacity="0" result="BackgroundImageFix"/>
      <feColorMatrix in="SourceAlpha" type="matrix" values="0 0 0 0 0 0 0 0 0 0 0 0 0 0 0 0 0 0 127 0" result="hardAlpha"/>
      <feOffset dy="18"/>
      <feGaussianBlur stdDeviation="24"/>
      <feColorMatrix type="matrix" values="0 0 0 0 0.33 0 0 0 0 0.2 0 0 0 0 0.75 0 0 0 0.14 0"/>
      <feBlend mode="normal" in2="BackgroundImageFix" result="effect1_dropShadow"/>
      <feBlend mode="normal" in="SourceGraphic" in2="effect1_dropShadow" result="shape"/>
    </filter>
  </defs>

  <rect width="1200" height="760" rx="24" fill="url(#bg)"/>
  <rect x="30" y="24" width="1140" height="712" rx="20" fill="#FDFEFF" filter="url(#shadow)"/>

  <rect x="92" y="88" width="310" height="152" rx="16" fill="#1E3A6D" opacity="0.92"/>
  <circle cx="144" cy="132" r="18" fill="#84B3FF" opacity="0.85"/>
  <rect x="118" y="168" width="246" height="10" rx="5" fill="#B9D1FF" opacity="0.75"/>
  <rect x="118" y="190" width="172" height="10" rx="5" fill="#B9D1FF" opacity="0.5"/>
  <circle cx="275" cy="132" r="46" fill="#6E93FF" opacity="0.12"/>
  <circle cx="310" cy="154" r="22" fill="#6E93FF" opacity="0.14"/>

  <ellipse cx="673" cy="388" rx="424" ry="266" fill="#EAF4FF" opacity="0.72"/>
  <rect x="548" y="122" width="300" height="206" rx="18" fill="#DFF6FF" opacity="0.42"/>
  <rect x="572" y="147" width="250" height="152" rx="12" fill="url(#screen)" stroke="#A8D7FF" stroke-opacity="0.66"/>
  <rect x="616" y="164" width="88" height="14" rx="7" fill="#EFFFFF" opacity="0.88"/>
  <rect x="616" y="192" width="62" height="12" rx="6" fill="#EFFFFF" opacity="0.62"/>
  <rect x="616" y="219" width="126" height="12" rx="6" fill="#EFFFFF" opacity="0.5"/>
  <circle cx="789" cy="184" r="26" fill="#7DE6FF" opacity="0.22"/>
  <circle cx="810" cy="227" r="18" fill="#7DE6FF" opacity="0.22"/>

  <rect x="452" y="430" width="632" height="176" rx="18" fill="url(#desk)"/>
  <rect x="492" y="472" width="224" height="110" rx="16" fill="#FFF" opacity="0.9"/>
  <rect x="506" y="492" width="128" height="12" rx="6" fill="#9CB4D6"/>
  <rect x="506" y="516" width="174" height="12" rx="6" fill="#C0D1EB"/>
  <rect x="506" y="540" width="92" height="12" rx="6" fill="#C0D1EB"/>

  <ellipse cx="658" cy="430" rx="88" ry="22" fill="#8DB0D9" opacity="0.28"/>
  <circle cx="622" cy="334" r="54" fill="#CFA07B"/>
  <path d="M590 334C590 302 607 278 622 278C641 278 658 302 658 334C658 366 641 384 622 384C603 384 590 366 590 334Z" fill="#F2C39A"/>
  <path d="M566 330C564 282 591 244 622 244C654 244 681 280 682 328C681 334 677 345 673 349C656 332 644 325 622 325C600 325 584 332 566 330Z" fill="#7E8996"/>
  <path d="M558 450C563 408 579 385 606 372C618 366 637 366 648 370C681 382 696 417 702 476L704 560H544L558 450Z" fill="#4B88D8"/>
  <path d="M570 391L525 440C515 451 512 467 516 481L533 540H560L548 481L599 430L570 391Z" fill="#EEF4FC"/>
  <path d="M676 392L718 438C728 449 731 466 727 480L711 540H685L695 481L645 430L676 392Z" fill="#EEF4FC"/>
  <rect x="563" y="486" width="122" height="14" rx="7" fill="#FFFFFF" opacity="0.92"/>
  <rect x="582" y="503" width="88" height="10" rx="5" fill="#D7E4F7"/>
  <rect x="566" y="419" width="112" height="17" rx="8.5" fill="#29569E" opacity="0.28"/>

  <circle cx="930" cy="316" r="66" fill="#F1F5FC"/>
  <path d="M892 308C892 277 915 254 944 254C972 254 994 277 994 308C994 342 971 366 943 366C917 366 892 342 892 308Z" fill="#E8C29D"/>
  <path d="M894 300C898 263 924 236 944 236C968 236 992 264 997 299C996 307 992 319 989 323C976 312 960 304 944 304C927 304 909 312 894 300Z" fill="#2F2D38"/>
  <path d="M842 552C845 502 870 462 915 440C929 433 959 432 976 439C1027 459 1051 503 1058 572L1060 612H832L842 552Z" fill="url(#coat)"/>
  <path d="M887 429L850 517L892 545L922 474L887 429Z" fill="#D9E4F5"/>
  <path d="M978 429L1014 517L972 545L941 474L978 429Z" fill="#D9E4F5"/>
  <rect x="904" y="451" width="44" height="170" rx="22" fill="#5C5F72" opacity="0.18"/>
  <circle cx="900" cy="383" r="18" fill="#E0EBFA"/>
  <rect x="895" y="377" width="10" height="24" rx="5" fill="#58D4E8"/>
  <rect x="905" y="377" width="14" height="24" rx="7" fill="#9BDCF0" opacity="0.7"/>
  <path d="M720 404C750 392 784 386 820 390" stroke="#8BDAFF" stroke-width="2" stroke-linecap="round" opacity="0.65"/>
  <path d="M748 421C776 410 804 406 837 408" stroke="#8BDAFF" stroke-width="2" stroke-linecap="round" opacity="0.45"/>
  <circle cx="768" cy="460" r="34" fill="#84EAFF" opacity="0.28"/>
  <circle cx="769" cy="460" r="16" fill="#58D4E8" opacity="0.42"/>
  <rect x="210" y="550" width="150" height="26" rx="13" fill="#D9E7F8" opacity="0.88"/>
  <rect x="236" y="526" width="98" height="18" rx="9" fill="#B5CAEA" opacity="0.68"/>
  <rect x="107" y="560" width="124" height="16" rx="8" fill="#B5CAEA" opacity="0.58"/>
  <circle cx="1034" cy="538" r="34" fill="#8BE8FF" opacity="0.38"/>
  <circle cx="1034" cy="538" r="12" fill="#63DDF5" opacity="0.58"/>
  <rect x="980" y="156" width="72" height="18" rx="9" fill="#DCE7F8"/>
  <rect x="980" y="188" width="96" height="18" rx="9" fill="#DCE7F8"/>
</svg>
