<svg width="1200" height="840" viewBox="0 0 1200 840" fill="none" xmlns="http://www.w3.org/2000/svg">
  <defs>
    <linearGradient id="bg" x1="92" y1="92" x2="1108" y2="748" gradientUnits="userSpaceOnUse">
      <stop stop-color="#F8FBFF"/>
      <stop offset="1" stop-color="#EAF1FF"/>
    </linearGradient>
  </defs>
  <rect width="1200" height="840" rx="28" fill="url(#bg)"/>
  <rect x="652" y="88" width="448" height="620" rx="26" fill="#EDF3FA"/>
  <rect x="678" y="114" width="396" height="568" rx="22" fill="#F9FBFF"/>
  <rect x="710" y="150" width="332" height="496" rx="18" fill="#FFFFFF"/>
  <circle cx="952" cy="344" r="82" fill="#E8EEF8"/>
  <circle cx="952" cy="344" r="52" fill="#D7E5F7"/>
  <circle cx="952" cy="344" r="28" fill="#B8CBE6"/>
  <path d="M726 514h280" stroke="#E6EDF7"/>
  <rect x="744" y="540" width="136" height="70" rx="14" fill="#F3F7FD"/>
  <rect x="890" y="540" width="136" height="70" rx="14" fill="#F3F7FD"/>
  <rect x="1036" y="540" width="16" height="70" rx="8" fill="#F3F7FD"/>

  <rect x="156" y="118" width="412" height="148" rx="24" fill="#FFFFFF" opacity="0.92"/>
  <rect x="156" y="118" width="412" height="148" rx="24" fill="none" stroke="#E4ECF9"/>
  <rect x="184" y="152" width="248" height="12" rx="6" fill="#D6E0F0"/>
  <rect x="184" y="174" width="188" height="12" rx="6" fill="#E1E9F6"/>
  <rect x="184" y="198" width="220" height="12" rx="6" fill="#E1E9F6"/>
  <circle cx="142" cy="146" r="8" fill="#1F5DE8"/>
  <text x="184" y="138" fill="#16223B" font-family="Inter, Arial, sans-serif" font-size="24" font-weight="800">Modern Diagnostic</text>
  <text x="184" y="170" fill="#16223B" font-family="Inter, Arial, sans-serif" font-size="24" font-weight="800">Infrastructure</text>
  <text x="184" y="204" fill="#1F5DE8" font-family="Inter, Arial, sans-serif" font-size="24" font-weight="800">Designed for Labs</text>

  <rect x="112" y="330" width="170" height="104" rx="18" fill="#FFFFFF" stroke="#E4ECF9"/>
  <rect x="112" y="454" width="170" height="104" rx="18" fill="#FFFFFF" stroke="#E4ECF9"/>
  <rect x="112" y="578" width="170" height="104" rx="18" fill="#FFFFFF" stroke="#E4ECF9"/>
  <circle cx="144" cy="368" r="16" fill="#EDF4FF"/>
  <circle cx="144" cy="492" r="16" fill="#EDF4FF"/>
  <circle cx="144" cy="616" r="16" fill="#EDF4FF"/>
  <path d="M140 364h8v8h-8z" stroke="#1F5DE8" stroke-width="2"/>
  <path d="M137 492c0-4 3-7 7-7s7 3 7 7-3 7-7 7-7-3-7-7Z" stroke="#1F5DE8" stroke-width="2"/>
  <path d="M138 611l6-6 6 6v10h-12z" stroke="#1F5DE8" stroke-width="2"/>

  <text x="176" y="368" fill="#16223B" font-family="Inter, Arial, sans-serif" font-size="16" font-weight="700">Tests Processed</text>
  <text x="176" y="398" fill="#16223B" font-family="Inter, Arial, sans-serif" font-size="28" font-weight="800">1.2M+</text>
  <text x="176" y="420" fill="#2ECC71" font-family="Inter, Arial, sans-serif" font-size="12" font-weight="600">+18% vs last month</text>

  <text x="176" y="492" fill="#16223B" font-family="Inter, Arial, sans-serif" font-size="16" font-weight="700">Reports Delivered</text>
  <text x="176" y="522" fill="#16223B" font-family="Inter, Arial, sans-serif" font-size="28" font-weight="800">980K+</text>
  <text x="176" y="544" fill="#2ECC71" font-family="Inter, Arial, sans-serif" font-size="12" font-weight="600">+16% vs last month</text>

  <text x="176" y="616" fill="#16223B" font-family="Inter, Arial, sans-serif" font-size="16" font-weight="700">TAT Improvement</text>
  <text x="176" y="646" fill="#16223B" font-family="Inter, Arial, sans-serif" font-size="28" font-weight="800">28%</text>
  <text x="176" y="668" fill="#2ECC71" font-family="Inter, Arial, sans-serif" font-size="12" font-weight="600">+12% vs last month</text>
</svg>
